<?xml version="1.0" standalone="no"?><!DOCTYPE svg PUBLIC "-//W3C//DTD SVG 1.1//EN" "http://www.w3.org/Graphics/SVG/1.1/DTD/svg11.dtd"><svg class="icon" width="200px" height="200.00px" viewBox="0 0 1024 1024" version="1.1" xmlns="http://www.w3.org/2000/svg"><path fill="#333333" d="M791.185049 773.805728c-17.430998 0-21.48022-21.479197-21.48022-21.479197 0-14.745842-4.697999-21.479197-21.479197-21.479197L297.155329 730.847334c-17.452487 0-21.479197 4.699022-21.479197 21.479197 0 0-3.544733 21.479197-21.48022 21.479197-41.365106 0-64.438615 43.295062-64.438615 85.918835l665.866367 0C855.623663 795.274692 791.185049 773.805728 791.185049 773.805728zM284.632107 590.600149c3.240811 3.074012 7.384178 4.594645 11.506055 4.594645 4.436032 0 8.851599-1.7519 12.134365-5.222955 6.355755-6.691399 6.082532-17.273409-0.629333-23.61893l-99.301633-94.109378c-6.701632-6.345522-17.284665-6.062066-23.64042 0.639566-6.355755 6.691399-6.072299 17.273409 0.629333 23.61893L284.632107 590.600149 284.632107 590.600149zM284.632107 590.600149M303.122227 647.318942c-1.499144-9.103332-10.100032-15.269775-19.203364-13.770632l-123.192763 20.263509c-9.103332 1.489934-15.281031 10.100032-13.780865 19.204387 1.342578 8.190543 8.442276 14.001899 16.487509 14.001899 0.901533 0 1.804089-0.072655 2.727111-0.231267l123.18253-20.252253C298.455951 665.023162 304.622394 656.423297 303.122227 647.318942L303.122227 647.318942zM303.122227 647.318942M863.258551 647.477554l-249.574149-232.310973 89.693812-89.641623 0.041956 0.041956c8.264221 8.265244 21.668509 8.265244 29.93273 0l0.828878-0.839111c8.275477-8.253988 8.275477-21.658276 0-29.912263L574.227762 134.936225c-8.264221-8.253988-21.668509-8.253988-29.93273 0l-0.839111 0.839111c-8.264221 8.264221-8.264221 21.658276 0 29.922497l0.041956 0.041956L320.019059 389.103995l-0.041956-0.041956c-8.265244-8.265244-21.668509-8.265244-29.93273 0l-0.839111 0.828878c-8.264221 8.264221-8.264221 21.658276 0 29.922497l159.964248 159.880337c8.264221 8.253988 21.668509 8.253988 29.93273 0l0.828878-0.839111c8.274454-8.253988 8.274454-21.657252 0-29.91124l-0.041956-0.041956 89.682555-89.641623 232.437863 249.448282c16.717753 17.944697 45.014216 18.448164 62.361303 1.101077l0 0C881.717971 692.470281 881.214505 664.196331 863.258551 647.477554L863.258551 647.477554zM382.548184 407.741471c-3.418866 3.418866-8.977465 3.418866-12.417821 0l-0.335644-0.345877c-3.440355-3.430122-3.440355-8.988722 0-12.407588l179.587168-179.503257c3.430122-3.429099 8.988722-3.429099 12.418844 0l0.345877 0.345877c3.418866 3.418866 3.418866 8.977465 0 12.407588L382.548184 407.741471 382.548184 407.741471zM382.548184 407.741471" /></svg>