<?xml version="1.0" standalone="no"?><!DOCTYPE svg PUBLIC "-//W3C//DTD SVG 1.1//EN" "http://www.w3.org/Graphics/SVG/1.1/DTD/svg11.dtd"><svg class="icon" width="200px" height="200.00px" viewBox="0 0 1024 1024" version="1.1" xmlns="http://www.w3.org/2000/svg"><path fill="#333333" d="M223.232 156.512c-23.968 0-43.328 19.392-43.328 43.168a43.2 43.2 0 0 0 43.328 43.168 43.2 43.2 0 1 0 0-86.336z m0 71.008a27.904 27.904 0 0 1-26.08-38.208l26.08 10.368-7.776-26.688a27.936 27.936 0 0 1 35.808 26.688c0 15.424-12.608 27.84-28.032 27.84z m0-224.16C115.264 3.36 27.776 91.264 27.776 199.744c0 108.352 87.488 196.288 195.456 196.288 107.872 0 195.392-87.936 195.392-196.288 0-108.416-87.52-196.384-195.392-196.384zM69.824 121.056l19.776 8.096a151.84 151.84 0 0 1 133.632-79.52 151.776 151.776 0 0 1 140.928 94.976h-37.92A117.664 117.664 0 0 0 223.232 83.84a117.12 117.12 0 0 0-101.472 58.336l18.208 7.36-58.304 37.472-11.84-65.952z m254.08 78.624S285.12 271.616 223.232 271.616c-66.208 0-100.704-71.936-100.704-71.936s34.88-71.904 100.704-71.904c62.24 0 100.672 71.904 100.672 71.904z m32.896 70.592a151.808 151.808 0 0 1-133.568 79.488c-64 0-118.752-39.392-141.024-94.944h37.952A117.536 117.536 0 0 0 223.232 315.52a117.152 117.152 0 0 0 101.408-58.24l-18.208-7.424 58.272-37.504 11.872 66.016-19.776-8.096zM453.504 251.808a252.48 252.48 0 0 1-11.52 38.624h283.328c11.584 0 19.328-7.776 19.328-19.296a19.36 19.36 0 0 0-19.328-19.328h-271.808z m291.136 169.952c0-11.584-7.712-19.328-19.328-19.328H359.104a255.04 255.04 0 0 1-70.496 38.624h436.704a19.36 19.36 0 0 0 19.328-19.296z m50.208-274.272c30.88 0 54.048 25.12 54.048 54.112v110.08h38.592V201.632a92.64 92.64 0 0 0-92.672-92.704H441.984c4.736 12.48 8.736 25.28 11.488 38.592h341.376zM242.528 591.68h297.344c11.616 0 19.328-7.744 19.328-19.328s-7.712-19.328-19.328-19.328H242.528c-11.552 0-19.296 7.776-19.296 19.328s7.712 19.328 19.296 19.328z m737.664-160.32l-69.504-71.392a24.768 24.768 0 0 0-19.296-7.744 24.96 24.96 0 0 0-19.36 7.744L476.224 755.872c-9.664 9.6-9.664 26.976 0 38.592l69.504 69.504c5.792 5.824 11.552 7.712 19.328 7.712a24.64 24.64 0 0 0 19.264-7.712l395.904-395.904a26.88 26.88 0 0 0-0.032-36.704zM565.024 829.248l-54.08-54.112 378.496-378.464 54.08 54.048-378.496 378.528z m285.792 96.512c0 28.992-25.088 54.112-54.048 54.112h-260.704v38.56h260.704a92.64 92.64 0 0 0 92.672-92.672v-235.584h-38.624v235.584z m-673.952 0V455.04a256.832 256.832 0 0 1-38.624-7.072V925.76a92.64 92.64 0 0 0 92.672 92.672h63.712v-38.56h-63.68c-28.96 0-54.08-23.2-54.08-54.112z m148.736 92.672l200.8-94.56-106.208-104.32-94.592 198.88z m135.104-106.176l-52.096 25.12 25.088-52.16 27.008 27.04z" /></svg>