<?xml version="1.0" standalone="no"?><!DOCTYPE svg PUBLIC "-//W3C//DTD SVG 1.1//EN" "http://www.w3.org/Graphics/SVG/1.1/DTD/svg11.dtd"><svg class="icon" width="200px" height="200.00px" viewBox="0 0 1024 1024" version="1.1" xmlns="http://www.w3.org/2000/svg"><path fill="#333333" d="M1024 447.872c0 0-76.352-77.312-176.192-92.992 51.072-68.8 112.32-188.416 37.248-304.448l-32.256-49.856-23.872 54.4c-20.48 46.528-93.312 169.664-180.48 158.912-39.936-14.72-85.696-23.04-137.792-23.04-53.12 0-99.456 8.128-139.584 22.592L370.816 212.288C281.984 226.048 208.704 102.016 188.16 55.68L164.096 1.728 132.032 51.264C56.704 167.808 118.784 288 169.984 356.672 72.768 376.256 0 447.872 0 447.872s94.656 93.12 212.352 95.872c14.72 75.392 49.856 148.16 97.088 246.016L320 811.456l0 72.448C320 926.72 354.88 960 397.504 960l228.928 0C669.12 960 704 926.72 704 883.904l0-66.816 1.344-2.624c51.968-107.456 89.92-186.304 104.448-270.592 1.28 0 2.496 0.32 3.84 0.32C929.792 544.256 1024 447.872 1024 447.872zM818.56 479.936c0.128-3.84 0.192-7.68 0.192-11.52 0-17.984-1.344-35.52-3.904-52.608 38.72 0.32 75.328 15.36 104.192 32.128C891.072 464.064 855.872 478.72 818.56 479.936zM853.44 142.848c11.136 72.256-33.28 143.808-66.432 185.664-14.72-29.504-33.472-51.648-52.352-68.16C787.008 233.664 827.328 183.424 853.44 142.848zM163.648 143.04c26.24 40.32 66.944 90.304 119.744 116.48-19.2 16.96-38.336 39.68-53.376 70.016C196.672 287.552 151.936 215.68 163.648 143.04zM199.296 478.976C165.504 475.392 133.952 462.272 108.352 447.872c26.496-14.848 59.264-28.352 94.272-31.488C200.256 432.448 199.04 448.96 199.04 465.856 199.04 470.208 199.168 474.624 199.296 478.976zM626.496 896 397.504 896C390.208 896 384 891.264 384 883.904L384 832l256 0 0 51.904C640 891.264 633.792 896 626.496 896zM656.448 768 640 768 384 768 370.176 768l-3.2-6.144C305.728 634.816 268.8 558.592 268.8 466.304c0-174.592 134.016-211.328 244.352-211.328C549.376 254.912 576 259.584 640 276.864L640 277.12c0 0.064-1.216 0.384-0.64 0.512 62.272 26.112 114.368 80.448 114.368 190.784C753.728 561.6 721.28 640 656.448 768zM448.896 535.168C447.168 551.68 433.28 563.904 417.088 563.904c-1.152 0-2.24-0.064-3.392-0.192C360.512 558.144 328.384 501.376 324.928 494.912c-8.448-15.616-2.688-35.072 12.864-43.52 15.552-8.384 34.88-2.624 43.328 12.8 7.424 13.504 25.088 34.176 39.296 35.712C438.016 501.76 450.752 517.504 448.896 535.168zM700.096 494.912c-3.456 6.4-35.584 63.168-88.768 68.8C610.176 563.84 609.088 563.904 607.936 563.904c-16.192 0-30.08-12.288-31.808-28.736C574.272 517.504 587.008 501.76 604.608 499.904c14.976-1.6 32.96-23.936 39.232-35.584 8.384-15.552 27.84-21.376 43.392-12.928S708.544 479.296 700.096 494.912z" /></svg>