<?xml version="1.0" standalone="no"?><!DOCTYPE svg PUBLIC "-//W3C//DTD SVG 1.1//EN" "http://www.w3.org/Graphics/SVG/1.1/DTD/svg11.dtd"><svg class="icon" width="200px" height="200.00px" viewBox="0 0 1024 1024" version="1.1" xmlns="http://www.w3.org/2000/svg"><path d="M664.128 876.881l-465.178-0.035c-1.073 0-2.141-0.145-3.176-0.429-0.826-0.227-20.421-5.771-36.729-24.603-14.681-16.952-29.688-48.336-17.81-101.579a12 12 0 0 1 11.694-9.388l402.333-0.584h0.018c6.62 0 11.99 5.361 12 11.982 0.01 6.628-5.355 12.008-11.982 12.018l-392.472 0.569c-4.993 29.889-0.426 53.537 13.617 70.394 9.45 11.342 20.675 16.219 24.455 17.619l423.78 0.032c-17.882-16.371-26.494-34.131-30.612-48.167-6.776-23.102-3.119-41.511-2.961-42.283 1.337-6.492 7.687-10.666 14.174-9.334 6.472 1.333 10.645 7.644 9.346 14.114-0.466 2.43-9.792 55.592 54.738 86.875a12.002 12.002 0 0 1-5.235 22.799z"  /><path d="M197.701 760.264c-6.627 0-12-5.373-12-12V230.229c0-6.627 5.373-12 12-12h67.746c6.627 0 12 5.373 12 12s-5.373 12-12 12h-55.746v506.035c0 6.627-5.372 12-12 12zM682.711 877.014c-19.14 0-33.176-3.761-34.28-4.065-6.389-1.764-10.138-8.373-8.374-14.761 1.761-6.381 8.357-10.126 14.735-8.381 0.531 0.143 43.255 11.341 76.485-9.302 19.305-11.993 32.09-32.753 38.011-61.715l-0.074-536.562H349.447c-6.627 0-12-5.373-12-12s5.373-12 12-12h431.765c6.627 0 11.999 5.371 12 11.998l0.076 549.752c0 0.779-0.075 1.556-0.226 2.32-7.175 36.441-23.767 62.925-49.314 78.713-20.505 12.672-43.03 16.003-61.037 16.003z"  /><path d="M797.457 863.601a11.986 11.986 0 0 1-9.995-5.345c-3.677-5.514-2.187-12.965 3.328-16.641 15.633-10.422 24.494-43.802 26.656-56.028V197.6H341.447c-6.627 0-12-5.372-12-12s5.373-12 12-12h487.999c6.627 0 12 5.372 12 12v601c0 0.647-0.053 1.294-0.157 1.934-0.904 5.543-9.637 54.685-37.187 73.051a11.948 11.948 0 0 1-6.645 2.016z"  /><path d="M859.457 843.602a11.996 11.996 0 0 1-10.43-6.048c-3.194-5.591-1.397-12.67 3.984-16.083 0.72-0.925 4.844-7.13 7.554-30.666 1.572-13.656 1.856-26.089 1.881-27.309l-0.98-611.896H369.447c-6.627 0-12-5.373-12-12s5.373-12 12-12h503.999c6.62 0 11.989 5.36 12 11.98l1 624c0 0.073 0 0.146-0.002 0.22-0.011 0.639-0.284 15.836-2.341 32.288-3.281 26.248-9.049 40.414-18.703 45.931a11.947 11.947 0 0 1-5.943 1.583zM341.206 265.91c-6.627 0-12-5.373-12-12v-69.656c0-25.289-19.581-46.654-42.759-46.654-23.577 0-42.759 20.48-42.759 45.654v45.932c0 6.627-5.373 12-12 12s-12-5.373-12-12v-45.932c0-38.407 29.948-69.654 66.759-69.654 17.946 0 34.822 7.538 47.518 21.226 12.408 13.377 19.241 30.931 19.241 49.429v69.656c0 6.626-5.373 11.999-12 11.999z"  /><path d="M309.807 327.6c-23.775 0-42.398-21.266-42.398-48.414l0.721-95.78c0.049-6.596 5.413-11.909 11.998-11.909h0.092c6.627 0.05 11.959 5.463 11.909 12.091l-0.721 95.689c0 13.6 8.082 24.323 18.399 24.323 10.697 0 19.399-10.952 19.399-24.414v-36.414c0-6.627 5.373-12 12-12s12 5.373 12 12v36.414c0 26.695-19.469 48.414-43.399 48.414z"  /><path d="M679.448 429.6a4 4 0 0 1-4 4h-384a4 4 0 0 1-4-4v-76a4 4 0 0 1 4-4h384a4 4 0 0 1 4 4v76z" fill="#D1D9E0" /><path d="M675.448 443.6h-384c-7.72 0-14-6.28-14-14v-76c0-7.72 6.28-14 14-14h384c7.72 0 14 6.28 14 14v76c0 7.719-6.28 14-14 14z m-378-20h372v-64h-372v64z" fill="#020202" /><path d="M619.446 554.6a4 4 0 0 1-4 4H291.448a4 4 0 0 1-4-4v-76a4 4 0 0 1 4-4h323.998a4 4 0 0 1 4 4v76z" fill="#FCFFB6" /><path d="M615.446 568.6H291.448c-7.72 0-14-6.28-14-14v-76c0-7.72 6.28-14 14-14h323.998c7.72 0 14 6.28 14 14v76c0 7.719-6.28 14-14 14z m-317.998-20h311.998v-64H297.448v64z"  /><path d="M679.448 680.6a4 4 0 0 1-4 4H291.447a4 4 0 0 1-4-4v-76a4 4 0 0 1 4-4h384.001a4 4 0 0 1 4 4v76z" fill="#D1D9E0" /><path d="M675.448 694.6H291.447c-7.72 0-14-6.28-14-14v-76c0-7.72 6.28-14 14-14h384.001c7.72 0 14 6.28 14 14v76c0 7.719-6.28 14-14 14z m-378.001-20h372.001v-64H297.447v64z" fill="#020202" /></svg>