<?xml version="1.0" standalone="no"?><!DOCTYPE svg PUBLIC "-//W3C//DTD SVG 1.1//EN" "http://www.w3.org/Graphics/SVG/1.1/DTD/svg11.dtd"><svg class="icon" width="200px" height="200.00px" viewBox="0 0 1024 1024" version="1.1" xmlns="http://www.w3.org/2000/svg"><path d="M422.807 387.167h473.386v330.666H422.807z" fill="#CCCCCC" /><path d="M424 389h471v329H424z" fill="#FFFFFF" /><path d="M814.5 491.5h41v11h-41zM708.5 454.5h41v11h-41zM605.5 421.5h44v11h-44zM586.5 528.5h41v11h-41zM490.5 479.5h45v8h-45z" fill="#FFFFFF" /><path d="M490.5 646.5h34v-137h25v137h37v-85h26v85h33v-192h26v192h37v-155h25v155h37v-192h22v192h22v14h-324z" fill="#FFFFFF" /><path d="M424.5 363.5v25h474v-25z" fill="#5BAFB7" /><path d="M770.5 454.5h22v192h-22z" fill="#FFB819" /><path d="M708.5 491.5h25v155h-25z" fill="#57C4D3" /><path d="M645.5 454.5h26v192h-26z" fill="#FFB819" /><path d="M586.5 561.5h26v85h-26z" fill="#57C4D3" /><path d="M524.5 509.5h25v137h-25z" fill="#FFB819" /><path d="M814.5 491.5h41v11h-41zM708.5 454.5h41v11h-41zM605.5 421.5h44v11h-44zM586.5 528.5h41v11h-41zM490.5 479.5h45v8h-45z" fill="#A4A5A0" /><path d="M814.5 646.5h-324v14h324z" fill="#347A91" /><path d="M632.847 653.559c-22.748-22.746-82.043-36.896-118.511-43.653a430.995 430.995 0 0 1 5.314 5.259l22.534 69.499-24.568 23.52 19.271 41.941-30.403 172.882h65.755l2.951-90.027 5.176 90.027h85.657c-1.6-70.414-8.006-244.275-33.176-269.448zM278.082 708.17l-24.571-23.538 22.533-69.526s2.038-2.041 5.363-5.19c-36.52 6.815-95.206 21.044-117.812 43.645-25.17 25.175-31.58 199.034-33.182 269.446h82.559l5.173-90.028 2.952 90.028h68.113l-30.396-172.893 19.268-41.944z" fill="#8198C8" /><path d="M330.191 580.069a351.66 351.66 0 0 1 1.463-4.794 163.883 163.883 0 0 0-1.463 4.794z" fill="#FFCFBA" /><path d="M370.574 615.105l27.644 50.58 26.904-50.58s23.85-12.288 34.822-30.858V545.39c-10.973 20.097-31.182 31.204-68.009 31.204-35.224 0-50.869-10.348-66.415-29.139v25.866c8.23-0.347 3.977-0.729 4.759-1.006 2.14 24.604 40.295 42.79 40.295 42.79z" fill="#FFCFBA" /><path d="M391.936 576.594c36.827 0 57.036-11.107 68.009-31.204v-3.693c-14.631 17.366-31.382 26.881-65.489 26.881-36.847 0-47.902-11.323-68.935-31.808v10.688c15.546 18.787 31.192 29.136 66.415 29.136z" fill="#F4B4A7" /><path d="M212.973 923.005h8.125l-2.951-90.028zM572.24 923.005h8.127l-5.174-90.028z" fill="#78829A" /><path d="M475.059 632.435l-22.656 39.897s-4.277-50.809-26.208-57.227l-27.976 50.58-27.644-50.58c-21.928 6.418-26.21 57.227-26.21 57.227l-22.896-40.329c-1.38 18.624-1.575 40.314-0.639 65.699 0.965 25.854 21.956 124.714 44.86 225.303H434.383c20.601-100.589 39.524-199.447 40.482-225.303 0.937-25.334 1.132-46.838 0.194-65.267z" fill="#FFFFFF" /><path d="M321.469 632.003l-1.7-2.997c1.489-17.154 7.136-37.918 10.422-48.937 0.467-1.62 0.957-3.221 1.464-4.794 0.589-1.877 0.951-2.961 0.951-2.961-0.781 0.277-1.62 0.66-2.438 1.007-16.198 6.849-38.621 26.995-48.762 36.594-3.323 3.148-5.361 5.19-5.361 5.19l-22.533 69.526 24.572 23.537-19.269 41.942 30.396 172.893h76.48c-22.904-100.589-43.896-199.448-44.86-225.303-0.937-25.383-0.741-47.072 0.638-65.697z" fill="#848FC1" /><path d="M465.106 573.086c0.095 0.28 0.178 0.57 0.271 0.849 0.025-0.23 0.1-0.45 0.122-0.689-0.132-0.046-0.269-0.117-0.393-0.16z" fill="#3B433F" /><path d="M517.616 708.17l24.568-23.538-22.532-69.526s-2.007-2.086-5.316-5.32c-10.14-9.896-32.689-30.678-48.827-36.53 0.094 0.313 9.371 31.276 11.495 55.753l-1.946 3.43c0.938 18.43 0.744 39.934-0.191 65.268-0.958 25.854-19.881 124.714-40.481 225.303h72.101l30.402-172.893-19.273-41.947z" fill="#848FC1" /><path d="M332.604 572.315s-0.361 1.085-0.951 2.96a342.027 342.027 0 0 0-1.463 4.794c-3.287 11.019-8.933 31.781-10.422 48.937l1.7 2.997 22.896 40.329s4.281-50.809 26.21-57.227c0 0-35.832-18.186-37.97-42.79zM426.195 615.105c21.932 6.418 26.208 57.227 26.208 57.227l22.656-39.897 1.946-3.429c-2.125-24.478-11.437-55.439-11.528-55.753a0.283 0.283 0 0 0-0.046-0.028v0.02c0 0.239-0.063 0.459-0.089 0.69-0.413 3.615-1.582 7.054-3.268 10.313-9.589 18.568-35.879 30.857-35.879 30.857z" fill="#BFBFBF" /><path d="M397.854 568.575c34.104 0 50.861-9.515 64.237-26.881 9.28-12.047 16.933-27.872 27.616-46.931 7.101-12.654 12.554-27 16.701-41.81 3.015 0.747 6.313-0.021 9.809-3.114 10.903-9.623 22.796-56.161 14.769-65.78-2.704-3.264-5.6-3.941-8.237-3.426a300.18 300.18 0 0 1-1.755 11.589c-0.225 1.326-0.494 2.667-0.739 4.003a312.156 312.156 0 0 1-1.504 7.758c-0.11 0.56-0.198 1.104-0.317 1.658-0.011-0.03-0.019 0.706-0.025 0.679-1.301 6.104-2.744 15.563-4.401 19.222h-3.366c1.946-16.459 3.281-44.266-1.291-65.591-7.921-36.905-34.799-68.569-55.116-65.367-20.041 3.171-35.928 12.384-56.394 12.624-20.471-0.24-36.357-9.739-56.404-12.914-20.313-3.201-47.19 28.799-55.109 65.707-4.577 21.325-3.239 49.083-1.298 65.542h-3.362c-2.387-8.229-4.363-18.483-5.995-27.172-0.004 0.02-0.008-0.342-0.011-0.327-0.157-0.807-0.281-1.799-0.428-2.609a388.561 388.561 0 0 1-0.931-5.396c-0.514-3.122-0.983-6.28-1.382-9.359-2.636-0.515-5.526 0.142-8.237 3.406-8.027 9.619 3.869 56.144 14.768 65.765 3.5 3.093 6.808 3.854 9.816 3.105 4.156 14.815 9.614 29.155 16.713 41.813 9.289 16.565 16.356 30.677 24.188 41.997 14.166 20.486 30.839 31.809 67.685 31.809z" fill="#FFCFBA" /><path d="M275.231 395.249c0.144 0.784 0.291 2.336 0.438 3.124 1.632 8.688 3.607 18.942 5.996 27.172h3.361c-1.941-16.459-3.279-44.267 1.297-65.591 7.919-36.905 34.797-68.569 55.11-65.367 20.046 3.171 35.934 12.384 56.404 12.624 20.466-0.24 36.353-9.739 56.395-12.914 20.316-3.202 47.193 28.798 55.115 65.707 4.572 21.324 3.236 49.082 1.291 65.542h3.366c1.657-3.657 3.103-13.115 4.401-19.222 0.111-0.521 0.234-1.434 0.344-1.957 0.545-2.591 1.03-5.371 1.504-7.95 0.245-1.334 0.515-2.769 0.739-4.096a304.28 304.28 0 0 0 1.755-11.639c4.718-36.342 1.936-69.64-10.406-96.076-19.344-41.44-74.462-59.134-114.502-59.37-40.057 0.236-95.17 17.914-114.514 59.35-12.341 26.441-15.125 59.71-10.407 96.056 0.397 3.08 0.875 6.187 1.382 9.306 0.288 1.757 0.615 3.527 0.931 5.301z" fill="#323232" /><path d="M552.471 320.55c0 42.237-0.438 113.479-151.092 113.479-150.674 0-151.08-71.242-151.08-113.479 0-42.202 67.683-51.784 151.08-51.784 83.437 0 151.092 9.582 151.092 51.784z" fill="#686F79" /><path d="M401.379 429.08c-145.179 0-150.847-66.114-151.08-108.717v0.19c0 42.236 0.405 113.479 151.08 113.479 150.652 0 151.092-71.242 151.092-113.479v-0.19c-0.262 42.601-5.93 108.717-151.092 108.717z" fill="#686F79" /><path d="M618.655 224.361c0 42.9-97.769 77.695-218.342 77.695-120.502 0-218.242-34.795-218.242-77.695 0-42.914 132.356-127.024 218.242-127.024 85.953 0 218.342 84.109 218.342 127.024z" fill="#AAB1BD" /><path d="M400.312 121.904c59.88 0 149.298 51.149 164.351 83.864 1.447-3.009 2.227-6.088 2.227-9.224 0-31.298-101.005-92.633-166.576-92.633-65.509 0-166.48 61.335-166.48 92.633 0 3.136 0.779 6.214 2.193 9.224 15.054-32.714 104.442-83.864 164.285-83.864z" fill="#AAB1BD" /><path d="M513.745 129.414c36.413 21.647 64.125 47.973 64.125 65.692 0 34.88-79.474 63.169-177.558 63.169-98.023 0-177.465-28.29-177.465-63.169 0-17.72 27.688-44.046 64.126-65.692-56.925 28.354-104.904 69.124-104.904 94.947 0 42.9 97.743 77.695 218.243 77.695 120.574 0 218.342-34.795 218.342-77.695 0.001-25.823-47.976-66.593-104.909-94.947z" fill="#686F79" /><path d="M563.336 274.905v-0.087c-0.029-0.072-0.058-0.155-0.086-0.231 0-0.023-0.062-0.055-0.062-0.055-5.49-13.094-75.803-23.454-161.811-23.454-85.97 0-156.337 10.36-161.8 23.454 0 0-0.023 0.03-0.023 0.055-0.034 0.076-0.091 0.158-0.116 0.231 0 0.021-0.027 0.059-0.027 0.087-3.787 8.384-3.902 38.624-0.205 46.592 0.025 0.08 0.146 0.155 0.205 0.254 3.985 13.292 74.992 23.871 161.969 23.871 86.99 0 157.964-10.581 161.985-23.871 0.056-0.1 0.147-0.174 0.178-0.254 3.693-7.968 3.631-38.208-0.207-46.592z" fill="#444B54" /><path d="M566.252 299.008c-0.063-1.992-0.112-3.953-0.234-5.88h0.032c-0.032-0.351-0.089-0.667-0.116-1.029 0-0.26-0.027-0.532-0.054-0.807v0.014c-0.149-1.953-0.315-3.828-0.554-5.543-9.771 2.337-22.049 4.593-36.586 6.557-0.232-4.609-4.02-8.29-8.667-8.29-4.798 0-8.705 3.896-8.705 8.693v1.688c-29.539 3.186-66.491 5.279-109.991 5.279-43.486 0-80.417-2.095-109.95-5.279v-1.688c0-4.8-3.933-8.693-8.731-8.693-4.682 0-8.438 3.682-8.669 8.29-14.567-1.963-26.815-4.22-36.611-6.557-0.205 1.715-0.406 3.59-0.55 5.543v-0.014c-0.032 0.274-0.032 0.549-0.062 0.807-0.027 0.362-0.063 0.679-0.063 1.029a219.32 219.32 0 0 0-0.227 5.88c10.605 3.655 23.265 7.109 37.509 10.188 0.118 4.676 3.956 8.438 8.669 8.438 3.529 0 6.584-2.134 7.924-5.171 32.477 5.848 71.028 9.68 110.76 9.68 39.717 0 78.3-3.83 110.77-9.68a8.678 8.678 0 0 0 7.927 5.171c4.733 0 8.492-3.763 8.694-8.438 14.224-3.079 26.913-6.533 37.485-10.188z m-37.478 2.642v-1.867c6.931-0.938 13.523-1.948 19.646-3.018-6.002 1.679-12.565 3.313-19.646 4.885z m-254.772-1.865v1.866c-7.057-1.572-13.671-3.204-19.684-4.883a540.16 540.16 0 0 0 19.684 3.017z m17.427 5.389v-3.335c33.083 3.488 71.832 5.261 109.95 5.261 38.091 0 76.879-1.773 109.992-5.261v3.335c-30.366 5.569-67.789 9.583-109.992 9.583-42.186 0-79.61-4.014-109.95-9.583z" fill="#444B54" /><path d="M239.411 287.234c0-0.035 0.027-0.064 0.027-0.069 0.025-0.075 0.081-0.175 0.116-0.254 0-0.008 0.023-0.024 0.023-0.053 5.463-13.088 75.83-23.434 161.8-23.434 86.007 0 156.318 10.346 161.811 23.434 0 0.026 0.061 0.045 0.061 0.053 0.029 0.078 0.058 0.179 0.087 0.254v0.069c1.56 3.362 2.459 10.317 2.802 17.9 0.521-11.475-0.435-25.051-2.802-30.229v-0.087c-0.029-0.072-0.058-0.155-0.087-0.231 0-0.023-0.061-0.055-0.061-0.055-5.49-13.094-75.803-23.454-161.811-23.454-85.969 0-156.336 10.36-161.8 23.454 0 0-0.023 0.03-0.023 0.055-0.035 0.076-0.091 0.158-0.116 0.231 0 0.021-0.027 0.059-0.027 0.087-2.342 5.177-3.267 18.755-2.775 30.229 0.316-7.585 1.27-14.54 2.775-17.9z" fill="#444B54" /><path d="M563.543 309.167c-0.029 0.071-0.123 0.159-0.178 0.244-4.021 13.297-74.995 23.896-161.986 23.896-86.976 0-157.982-10.599-161.968-23.896-0.06-0.084-0.178-0.172-0.204-0.244-1.417-3.033-2.285-9.307-2.571-16.346-0.464 11.232 0.375 23.902 2.571 28.675 0.022 0.08 0.145 0.155 0.204 0.254 3.985 13.291 74.992 23.871 161.968 23.871 86.991 0 157.965-10.58 161.986-23.871 0.056-0.1 0.147-0.174 0.178-0.254 2.189-4.772 3.087-17.442 2.597-28.675-0.32 7.039-1.192 13.313-2.597 16.346z" fill="#444B54" /><path d="M566.252 296.55c-0.063-2.641-0.142-5.244-0.372-7.727-32.337 11.427-91.33 23.448-164.501 23.448-73.17 0-132.151-12.021-164.513-23.448-0.176 2.48-0.292 5.086-0.349 7.727 36.961 12.732 99.354 23.123 164.861 23.123 65.49 0 127.943-10.392 164.874-23.123z" fill="#F5BF33" /><path d="M566.05 290.658c-0.197-2.618-0.404-5.102-0.723-7.369-31.154 7.465-87.414 13.944-163.948 13.944-76.52 0-132.838-6.479-163.962-13.944-0.26 2.268-0.55 4.75-0.672 7.369 38.064 9.221 102.281 13.971 164.634 13.971 62.345 0 126.588-4.75 164.671-13.971z" fill="#F5BF33" /><path d="M291.429 306.465c0 4.812-3.933 8.698-8.731 8.698a8.677 8.677 0 0 1-8.693-8.698v-16.209a8.684 8.684 0 0 1 8.693-8.69c4.8 0 8.731 3.902 8.731 8.69v16.209zM511.372 306.465c0 4.812 3.906 8.698 8.704 8.698a8.693 8.693 0 0 0 8.695-8.698v-16.209c0-4.788-3.898-8.69-8.695-8.69-4.798 0-8.704 3.902-8.704 8.69v16.209z" fill="#F5BF33" /><path d="M457.969 185.219c0 31.814-25.803 57.609-57.656 57.609-31.786 0-57.589-25.795-57.589-57.609s25.804-57.625 57.589-57.625c31.853 0 57.656 25.81 57.656 57.625z" fill="#444B54" /><path d="M401.399 167.292l5.822 11.799 13.018 1.892-9.418 9.181 2.222 12.966-11.644-6.121-11.646 6.121 2.227-12.966-9.422-9.181 13.017-1.892z" fill="#F5BF33" /></svg>