<?xml version="1.0" standalone="no"?><!DOCTYPE svg PUBLIC "-//W3C//DTD SVG 1.1//EN" "http://www.w3.org/Graphics/SVG/1.1/DTD/svg11.dtd"><svg class="icon" width="200px" height="200.00px" viewBox="0 0 1024 1024" version="1.1" xmlns="http://www.w3.org/2000/svg"><path d="M871.68 520.4992V153.6h-153.6V0h-614.4a51.2 51.2 0 0 0-51.2 51.2v921.6a51.2 51.2 0 0 0 51.2 51.2H138.24l503.5008-503.5008h229.9392zM155.9552 759.2448a38.4 38.4 0 1 1 0-76.8 38.4 38.4 0 0 1 0 76.8z m0-247.2448a38.4 38.4 0 1 1 0-76.8 38.4 38.4 0 0 1 0 76.8z m0-247.2448a38.4 38.4 0 1 1 0-76.8 38.4 38.4 0 0 1 0 76.8z" fill="#F27151" /><path d="M641.7408 520.4992L138.24 1024h682.24a51.2 51.2 0 0 0 51.2-51.2V520.4992h-229.9392z" fill="#D56649" /><path d="M718.08 153.6h153.6l-153.6-153.6z" fill="#F4C2BC" /><path d="M871.68 307.2V153.6h-153.6z" fill="#D66648" /><path d="M366.7712 294.7584h49.6896v120.96c4.736 16.8448 15.5136 25.2672 32.3584 25.2672h170.6496v33.5104h-185.1136c-5.8624 0-14.0032-3.4048-24.4224-10.2144-11.9296 8.1408-26.7008 12.2112-44.288 12.2112V442.112c9.6512-1.5104 14.4896-4.8128 14.4896-9.9328v-100.7872h-13.3376v-36.6336z m9.9328-72.1152h40.8832v51.0976h-40.8832V222.6432z m62.1824-1.152h159.5648v35.4816l-23.8592 18.7392h37.1968v124.3648c0 9.856-3.1232 18.0736-9.3696 24.704-4.9152 5.6832-12.1088 8.5248-21.5808 8.5248h-25.5488v-27.8272h12.2112c4.1728 0 6.3488-4.0704 6.528-12.2112h-34.3552v37.76h-37.76v-37.76h-33.2288v40.0384h-37.76V275.712h33.792l-10.496-15.3344h42.3168l10.2144 15.3344h15.616l28.3904-24.4224h-111.872V221.4912z m29.7984 99.9424h33.2288v-16.7424h-33.2288v16.7424z m0 44.3136h33.2288v-16.7424h-33.2288v16.7424z m70.9888-61.056v16.7424h34.3552v-16.7424h-34.3552z m0 44.288v16.7424h34.3552v-16.7424h-34.3552zM383.232 778.5728h-15.3344v15.7696l15.9488-15.9488c-0.2304 0-0.384 0.1792-0.6144 0.1792z" fill="#EA654B" /><path d="M500.7872 705.3056v-37.76h-6.0928l-37.76 37.76z" fill="#E25744" /><path d="M509.8752 652.3648l37.4784-37.4784v-1.5616h1.5616l35.4816-35.4816h-74.5216zM455.3472 619.8528h42.3168v-36.6336h-80.64l3.968-18.7392h-34.3552l-7.68 36.9152c-1.5104 4.9152-3.4048 7.3728-5.6832 7.3728h-5.4016v34.3552h16.4864c12.8512 0 20.9152-6.7072 24.1408-20.1728l0.5632-3.1232h8.5248v47.6928h-53.0944v37.76h53.0944c0 1.1264-0.4864 3.7888-1.408 7.9616l-20.8128 53.6064 60.2624-60.2624c-0.0512-0.384-0.2304-0.9472-0.256-1.3056h1.5872l37.76-37.76h-39.3472v-47.6672z" fill="#EA654B" /><path d="M393.472 771.7632c-2.3296 4.3008-5.5808 6.4-9.6256 6.6304l-15.9488 15.9488v20.864h36.6336c7.1936 0 12.4928-5.12 15.8976-15.3344l16.1792-42.3168 14.7712 41.728c3.968 10.5984 10.5216 15.8976 19.6096 15.8976h33.2032v-36.6336h-12.2112c-4.5312 0-8.2176-2.2784-11.0592-6.8096l-23.8592-57.9328a49.2288 49.2288 0 0 1-1.4592-7.2192l-60.2624 60.2624-1.8688 4.9152zM582.8352 613.3248v155.3152c0 5.8624-2.944 8.8064-8.8064 8.8064h-26.6752V614.912l-37.4784 37.4784v160.5632h83.2c18.3552 0 27.5456-8.9088 27.5456-26.7008v-208.4096h-36.1984l-35.4816 35.4816h33.8944z" fill="#E25744" /><path d="M257.3056 238.4128h512v51.2h-512zM257.3056 400h512v51.2h-512zM257.3056 561.6128v51.2h292.1216l51.2-51.2z" fill="#C9C5DD" /><path d="M549.4272 612.8128h219.8784v-51.2h-168.6784zM387.84 774.4h289.7152v-51.2H439.04z" fill="#BDBAD3" /><path d="M257.3056 723.2v51.2h130.5344l51.2-51.2z" fill="#C9C5DD" /><path d="M919.3216 677.4272c28.4416-42.6752 28.4416-145.1008 28.4416-145.1008H663.296s-7.8592 102.4512 20.5568 145.1008c24.96 37.4272 63.232 59.0336 63.232 87.4752v0.384c0 28.4672-38.2976 48.0512-63.232 85.4528-28.4416 42.6752-20.5568 142.3616-20.5568 142.3616h284.4672s0-99.5072-28.4416-142.1824c-24.96-37.4272-71.1168-56.832-71.1168-85.2992 0-28.416 46.1568-50.7648 71.1168-88.192z" fill="#FFFFFF" /><path d="M791.296 532.3264h-99.5584s0 59.776 14.2336 102.4256c18.5344 55.6288 85.3248 72.5504 85.3248 129.4592 0 56.8832 0 185.6 14.208 185.6 14.2336 0 14.2336-127.6416 14.2336-184.5248s66.816-75.0848 85.3248-130.7136c14.2336-42.6752 14.2336-102.272 14.2336-102.272h-128z" fill="#F9C82D" /><path d="M945.92 967.5264h-281.6a25.6 25.6 0 0 0 0 51.2h281.6a25.6 25.6 0 0 0 0-51.2zM945.92 506.7264h-281.6a25.344 25.344 0 0 0-22.3232 13.7728h326.272a25.344 25.344 0 0 0-22.3488-13.7728zM641.9968 520.4992a24.832 24.832 0 0 0-3.2768 11.8272 25.6 25.6 0 0 0 25.6 25.6h281.6a25.6 25.6 0 0 0 25.6-25.6 25.1648 25.1648 0 0 0-3.2512-11.8272H641.9968z" fill="#3BAFDA" /></svg>