<?xml version="1.0" standalone="no"?><!DOCTYPE svg PUBLIC "-//W3C//DTD SVG 1.1//EN" "http://www.w3.org/Graphics/SVG/1.1/DTD/svg11.dtd"><svg class="icon" width="200px" height="200.00px" viewBox="0 0 1024 1024" version="1.1" xmlns="http://www.w3.org/2000/svg"><path fill="#333333" d="M617.6 310.4c25.6 22.4 38.4 54.4 38.4 92.8 0 32-9.6 57.6-25.6 80-6.4 6.4-25.6 25.6-54.4 51.2-12.8 9.6-22.4 22.4-25.6 32-6.4 12.8-9.6 28.8-9.6 44.8v9.6h-70.4v-9.6c0-25.6 3.2-44.8 12.8-64 9.6-19.2 35.2-44.8 73.6-80l12.8-12.8c12.8-16 19.2-32 19.2-48 0-22.4-6.4-41.6-19.2-54.4-12.8-12.8-32-19.2-54.4-19.2-28.8 0-51.2 9.6-64 28.8-6.4 9.6-12.8 22.4-16 38.4-3.2 16-16 28.8-35.2 28.8-22.4 0-38.4-22.4-35.2-41.6 6.4-28.8 19.2-51.2 38.4-70.4 28.8-28.8 64-41.6 115.2-41.6 38.4 0 73.6 12.8 99.2 35.2M537.6 672c9.6 9.6 12.8 19.2 12.8 32s-3.2 25.6-12.8 35.2c-9.6 9.6-22.4 12.8-35.2 12.8-12.8 0-25.6-3.2-32-12.8-9.6-9.6-16-19.2-16-32s6.4-25.6 16-32c9.6-9.6 19.2-12.8 32-12.8 16-3.2 25.6 3.2 35.2 9.6"  /><path fill="#333333" d="M512 1024C230.4 1024 0 793.6 0 512S230.4 0 512 0s512 230.4 512 512-230.4 512-512 512m0-960C265.6 64 64 265.6 64 512s201.6 448 448 448 448-201.6 448-448S758.4 64 512 64"  /></svg>